<svg width="41" height="52" viewBox="0 0 41 52" fill="none" xmlns="http://www.w3.org/2000/svg">
<g clip-path="url(#clip0_1_214)">
<path fill-rule="evenodd" clip-rule="evenodd" d="M36.4941 23.8872C35.7302 23.4462 34.8239 23.2639 33.8135 23.3646C32.8465 23.4618 31.7771 23.8177 30.6573 24.467C29.5375 25.1111 28.468 25.9809 27.5028 27.007C26.4941 28.0712 25.5861 29.3056 24.8222 30.625C24.0548 31.9445 23.4489 33.3524 23.0288 34.7552C22.6226 36.1077 22.4003 37.4688 22.4003 38.7639C22.4003 40.059 22.6208 41.1597 23.0288 42.0469C23.4489 42.9705 24.0548 43.6667 24.8222 44.1077C25.5861 44.5452 26.4941 44.7309 27.5028 44.6302C28.4698 44.533 29.5392 44.1771 30.6573 43.5313C31.7771 42.8837 32.8448 42.0139 33.8135 40.9861C34.8222 39.9167 35.7302 38.6875 36.4941 37.3646C37.2528 36.0504 37.8673 34.6458 38.2927 33.2379C38.6955 31.8854 38.916 30.5243 38.916 29.2344C38.916 27.9445 38.6955 26.8386 38.2927 25.9479C37.8691 25.0226 37.2528 24.3281 36.4941 23.8872Z" stroke="black" stroke-width="0.520833" stroke-linecap="round" stroke-linejoin="round"/>
<path d="M30.9561 20.7934V21.0243V21.0677" stroke="black" stroke-width="0.520833" stroke-linecap="round" stroke-linejoin="round"/>
<path d="M30.9569 21.0677C30.9569 21.1302 30.9048 21.198 30.8788 21.2535C30.7486 21.4393 30.5142 21.5695 30.2781 21.6389C29.8076 21.8091 29.1548 21.7952 28.7104 21.5712C28.5802 21.5209 28.476 21.448 28.3701 21.3594C28.292 21.2865 28.2399 21.1997 28.2139 21.1059" stroke="black" stroke-width="0.520833" stroke-linecap="round" stroke-linejoin="round"/>
<path d="M28.2125 21.1059L28.1865 21.0677V21.0243V20.7934" stroke="black" stroke-width="0.520833" stroke-linecap="round" stroke-linejoin="round"/>
<path d="M32.5501 19.4271C32.2168 21.3767 27.1699 21.6233 26.5901 19.4271" stroke="black" stroke-width="0.520833" stroke-linecap="round" stroke-linejoin="round"/>
<path d="M26.5901 18.6545C26.6421 18.8559 26.6682 18.9653 26.8001 19.1406C27.0085 19.4323 27.2446 19.592 27.5571 19.7726C28.2637 20.1146 28.9425 20.2274 29.7272 20.2136C30.4842 20.1823 31.1387 20.0417 31.7914 19.6493C32.1838 19.3924 32.4703 19.1129 32.5484 18.6528" stroke="black" stroke-width="0.520833" stroke-linecap="round" stroke-linejoin="round"/>
<path fill-rule="evenodd" clip-rule="evenodd" d="M27.4533 17.2639C28.6287 16.5868 30.5367 16.5868 31.6877 17.2639C32.8631 17.941 32.8631 19.0347 31.6877 19.7101C30.5367 20.3889 28.6287 20.3889 27.4533 19.7101C26.2763 19.033 26.2763 17.941 27.4533 17.2639Z" stroke="black" stroke-width="0.520833" stroke-linecap="round" stroke-linejoin="round"/>
<path fill-rule="evenodd" clip-rule="evenodd" d="M30.1268 33.6667C30.2587 33.4375 30.4167 33.2431 30.6268 33.1233C30.8369 33.0018 31.0226 32.9965 31.1546 33.0729C31.2865 33.1459 31.3646 33.3108 31.3646 33.5417C31.3646 33.7726 31.2848 34.0365 31.1546 34.2604C31.0226 34.4913 30.8386 34.6875 30.6268 34.8056C30.4167 34.9184 30.2587 34.9323 30.1268 34.8559C29.9949 34.7813 29.8907 34.6181 29.8907 34.3854C29.8907 34.1528 29.9949 33.8906 30.1268 33.6649V33.6667Z" stroke="black" stroke-width="0.520833" stroke-linecap="round" stroke-linejoin="round"/>
<path d="M36.0362 20.4254L36.6647 19.4236" stroke="black" stroke-width="0.520833" stroke-linecap="round" stroke-linejoin="round"/>
<path d="M36.6641 19.4236C37.1606 18.8281 39.4349 20.3212 38.8342 21.1771" stroke="black" stroke-width="0.520833" stroke-linecap="round" stroke-linejoin="round"/>
<path d="M38.8358 21.1788L38.3115 21.9861" stroke="black" stroke-width="0.520833" stroke-linecap="round" stroke-linejoin="round"/>
<path d="M32.5507 18.6546V19.4271" stroke="black" stroke-width="0.520833" stroke-linecap="round" stroke-linejoin="round"/>
<path d="M26.5901 19.4271V18.6546" stroke="black" stroke-width="0.520833" stroke-linecap="round" stroke-linejoin="round"/>
<path d="M35.2102 25.8594L31.0488 33.0365" stroke="black" stroke-width="0.520833" stroke-linecap="round" stroke-linejoin="round"/>
<path d="M30.3359 39.7535V41.408" stroke="black" stroke-width="0.520833" stroke-linecap="round" stroke-linejoin="round"/>
<path d="M35.4736 30.8646L36.8954 30.0365" stroke="black" stroke-width="0.520833" stroke-linecap="round" stroke-linejoin="round"/>
<path d="M30.3359 27.901V26.2483" stroke="black" stroke-width="0.520833" stroke-linecap="round" stroke-linejoin="round"/>
<path d="M25.2016 36.7934L23.752 37.6181" stroke="black" stroke-width="0.520833" stroke-linecap="round" stroke-linejoin="round"/>
<path d="M23.0895 1.10419L19.3881 3.24134L17.6034 4.27085L7.35341 10.1875L5.3048 11.375L1.86903 13.3507C1.35167 13.6858 1.06348 14.0295 0.737088 14.5469C0.455838 15.0764 0.36556 15.3959 0.282227 15.9722C0.273546 16.0226 0.266602 16.0868 0.266602 16.1372" stroke="black" stroke-width="0.520833" stroke-linecap="round" stroke-linejoin="round"/>
<path d="M0.265625 48.1267V17.0035" stroke="black" stroke-width="0.520833" stroke-linecap="round" stroke-linejoin="round"/>
<path d="M2.14252 49.7587V19.2188C2.14425 18.342 2.08175 17.2743 2.28488 16.4323C2.5071 15.5139 3.03141 14.8559 4.12342 14.224L7.18071 12.4549L9.22411 11.2761" stroke="black" stroke-width="0.520833" stroke-linecap="round" stroke-linejoin="round"/>
<path fill-rule="evenodd" clip-rule="evenodd" d="M23.5227 29.8785C25.3456 26.7188 27.8786 23.9584 30.6598 22.3473C33.4411 20.7431 35.9654 20.5921 37.7883 21.6424C39.6112 22.6945 40.7397 24.9584 40.7397 28.1737C40.7397 31.3889 39.6112 34.9549 37.7883 38.1146C35.9654 41.2744 33.4411 44.0348 30.6598 45.6424C27.8786 47.25 25.3456 47.4028 23.5227 46.3507C21.6998 45.2952 20.5713 43.0382 20.5713 39.8195C20.5713 36.6007 21.698 33.0434 23.5227 29.8785Z" stroke="black" stroke-width="0.520833" stroke-linecap="round" stroke-linejoin="round"/>
<path d="M26.0739 2.07121C26.0618 2.06253 26.0531 2.06253 26.041 2.05385C25.6764 1.85941 25.2944 2.02781 24.9628 2.19448" stroke="black" stroke-width="0.520833" stroke-linecap="round" stroke-linejoin="round"/>
<path d="M10.7479 30.9097L18.7219 26.3038" stroke="black" stroke-width="0.520833" stroke-linecap="round" stroke-linejoin="round"/>
<path d="M10.7479 26.6337L21.9406 20.1754" stroke="black" stroke-width="0.520833" stroke-linecap="round" stroke-linejoin="round"/>
<path d="M10.7479 22.0973L21.9406 15.6337" stroke="black" stroke-width="0.520833" stroke-linecap="round" stroke-linejoin="round"/>
<path d="M0.736115 14.5434L2.61459 15.6285" stroke="black" stroke-width="0.520833" stroke-linecap="round" stroke-linejoin="round"/>
<path d="M0.265402 17.0035C0.265402 16.7135 0.254986 16.4045 0.265402 16.1389" stroke="black" stroke-width="0.520833" stroke-linecap="round" stroke-linejoin="round"/>
<path d="M0.404461 49.3698C0.222169 49.026 0.263836 48.5035 0.263836 48.1267" stroke="black" stroke-width="0.520833" stroke-linecap="round" stroke-linejoin="round"/>
<path d="M2.61447 50.8073L0.725586 49.7257" stroke="black" stroke-width="0.520833" stroke-linecap="round" stroke-linejoin="round"/>
<path d="M8.75169 31.8386C8.75169 31.4028 8.43745 31.2205 8.0694 31.441" stroke="black" stroke-width="0.520833" stroke-linecap="round" stroke-linejoin="round"/>
<path d="M8.06735 33.0295C8.43714 32.8091 8.74964 32.2743 8.74964 31.8368" stroke="black" stroke-width="0.520833" stroke-linecap="round" stroke-linejoin="round"/>
<path d="M7.36823 32.632C7.36823 33.0729 7.68246 33.2466 8.06788 33.0313" stroke="black" stroke-width="0.520833" stroke-linecap="round" stroke-linejoin="round"/>
<path d="M8.06788 31.4393C7.68246 31.6598 7.36823 32.1945 7.36823 32.632" stroke="black" stroke-width="0.520833" stroke-linecap="round" stroke-linejoin="round"/>
<path d="M8.75169 27.2969C8.75169 26.8594 8.43745 26.6823 8.0694 26.9028" stroke="black" stroke-width="0.520833" stroke-linecap="round" stroke-linejoin="round"/>
<path d="M8.06735 28.4913C8.43714 28.2709 8.74964 27.7309 8.74964 27.2952" stroke="black" stroke-width="0.520833" stroke-linecap="round" stroke-linejoin="round"/>
<path d="M7.36823 28.0938C7.36823 28.5313 7.68246 28.7083 8.06788 28.4931" stroke="black" stroke-width="0.520833" stroke-linecap="round" stroke-linejoin="round"/>
<path d="M8.06788 26.9011C7.68246 27.1181 7.36823 27.6563 7.36823 28.0938" stroke="black" stroke-width="0.520833" stroke-linecap="round" stroke-linejoin="round"/>
<path d="M8.75169 23.0261C8.75169 22.5851 8.43745 22.4063 8.0694 22.6268" stroke="black" stroke-width="0.520833" stroke-linecap="round" stroke-linejoin="round"/>
<path d="M8.06735 24.217C8.43714 23.9965 8.74964 23.4618 8.74964 23.0243" stroke="black" stroke-width="0.520833" stroke-linecap="round" stroke-linejoin="round"/>
<path d="M7.36823 23.8177C7.36823 24.2552 7.68246 24.4323 8.06788 24.217" stroke="black" stroke-width="0.520833" stroke-linecap="round" stroke-linejoin="round"/>
<path d="M8.06788 22.6268C7.68246 22.842 7.36823 23.382 7.36823 23.8177" stroke="black" stroke-width="0.520833" stroke-linecap="round" stroke-linejoin="round"/>
<path d="M5.08392 16.7396V47.7327L17.9589 40.3021" stroke="black" stroke-width="0.520833" stroke-linecap="round" stroke-linejoin="round"/>
<path d="M24.3879 5.5903V23.4653" stroke="black" stroke-width="0.520833" stroke-linecap="round" stroke-linejoin="round"/>
<path d="M26.5674 21.592V3.11807" stroke="black" stroke-width="0.520833" stroke-linecap="round" stroke-linejoin="round"/>
<path d="M2.44781 50.6771C2.21343 50.441 2.14746 50.0886 2.14746 49.7691" stroke="black" stroke-width="0.520833" stroke-linecap="round" stroke-linejoin="round"/>
<path d="M3.74967 50.6979C3.3087 50.9601 2.90072 50.9774 2.61426 50.8073" stroke="black" stroke-width="0.520833" stroke-linecap="round" stroke-linejoin="round"/>
<path d="M18.5104 42.1771L3.75 50.698" stroke="black" stroke-width="0.520833" stroke-linecap="round" stroke-linejoin="round"/>
<path d="M0.40451 49.375C0.477427 49.4966 0.61458 49.6563 0.736108 49.7275" stroke="black" stroke-width="0.520833" stroke-linecap="round" stroke-linejoin="round"/>
<path d="M18.9259 10.1406L11.8252 14.2378V12.8507" stroke="black" stroke-width="0.520833" stroke-linecap="round" stroke-linejoin="round"/>
<path d="M9.66938 14.0886C8.13466 14.9757 6.61209 15.8525 5.08084 16.7396" stroke="black" stroke-width="0.520833" stroke-linecap="round" stroke-linejoin="round"/>
<path d="M19.9727 8.14065C21.4449 7.2969 22.9206 6.43926 24.3876 5.59204" stroke="black" stroke-width="0.520833" stroke-linecap="round" stroke-linejoin="round"/>
<path d="M11.8252 12.8507V12.8385L17.8061 9.39062" stroke="black" stroke-width="0.520833" stroke-linecap="round" stroke-linejoin="round"/>
<path d="M8.76443 9.47052V10.5052L9.65853 11.0226V15.2309L10.7783 15.875" stroke="black" stroke-width="0.520833" stroke-linecap="round" stroke-linejoin="round"/>
<path d="M17.8057 7.60941V9.39066L18.9255 10.1407V6.96878" stroke="black" stroke-width="0.520833" stroke-linecap="round" stroke-linejoin="round"/>
<path d="M19.76 5.20834L10.7773 10.6337V15.875L19.9718 10.5729V5.32813" stroke="black" stroke-width="0.520833" stroke-linecap="round" stroke-linejoin="round"/>
<path d="M8.76443 9.47052L10.7783 10.6337" stroke="black" stroke-width="0.520833" stroke-linecap="round" stroke-linejoin="round"/>
<path d="M19.9729 5.32813L18.7143 4.60244L17.959 4.16667" stroke="black" stroke-width="0.520833" stroke-linecap="round" stroke-linejoin="round"/>
<path d="M24.9638 2.19272L19.752 5.20834" stroke="black" stroke-width="0.520833" stroke-linecap="round" stroke-linejoin="round"/>
<path d="M26.5685 3.11807C26.5685 2.59724 26.3775 2.23266 26.0771 2.0712" stroke="black" stroke-width="0.520833" stroke-linecap="round" stroke-linejoin="round"/>
<path d="M24.2173 0.993073C23.8024 0.8021 23.4795 0.899323 23.0889 1.10418" stroke="black" stroke-width="0.520833" stroke-linecap="round" stroke-linejoin="round"/>
<path d="M26.0754 2.07123L24.2178 0.993103" stroke="black" stroke-width="0.520833" stroke-linecap="round" stroke-linejoin="round"/>
<path fill-rule="evenodd" clip-rule="evenodd" d="M11.8252 14.2378V11.0625C14.195 9.69618 16.5544 8.3316 18.9259 6.97049V10.1424C16.5544 11.5087 14.1967 12.8733 11.8252 14.2396V14.2378Z" stroke="black" stroke-width="0.520833" stroke-linecap="round" stroke-linejoin="round"/>
<path d="M23.361 46.2483C22.696 45.8629 20.7394 44.7934 20.2273 44.4028C17.0172 41.9774 17.5433 36.5833 18.5641 33.2101C20.0311 28.3333 23.42 23.3542 27.8558 20.7292" stroke="black" stroke-width="0.520833" stroke-linecap="round" stroke-linejoin="round"/>
<path d="M34.8155 19.9288L37.6193 21.5504" stroke="black" stroke-width="0.520833" stroke-linecap="round" stroke-linejoin="round"/>
<path d="M35.4896 23.474C36.9914 24.3091 37.9289 26.158 37.9289 28.7761C37.9289 33.9792 34.2778 40.3021 29.7813 42.9028C27.5122 44.2136 25.4688 44.323 23.9844 43.4462" stroke="black" stroke-width="0.520833" stroke-linecap="round" stroke-linejoin="round"/>
<path d="M32.5 19.349C33.2951 19.3611 34.0799 19.533 34.816 19.9288" stroke="black" stroke-width="0.520833" stroke-linecap="round" stroke-linejoin="round"/>
</g>
<defs>
<clipPath id="clip0_1_214">
<rect width="41" height="50.5486" fill="white" transform="translate(0 0.630249)"/>
</clipPath>
</defs>
</svg>
