<svg width="32" height="55" viewBox="0 0 32 55" fill="none" xmlns="http://www.w3.org/2000/svg">
<g clip-path="url(#clip0_1_167)">
<path d="M28.7558 39.0247C29.8168 38.4139 30.6934 36.9165 30.6934 35.6869L30.7033 10.2317M30.7033 10.2317C31.8318 9.48198 32.1987 8.71049 30.7609 7.59192L24.1526 2.44733C24.1387 2.43345 24.1288 2.42353 24.1189 2.41362M30.7033 10.2317C30.4415 10.426 30.1262 10.5986 29.797 10.785L26.235 12.8436M24.932 3.34774C24.932 3.34774 24.9221 3.34774 24.9221 3.33385M3.16568 53.7822L0.882945 52.4693C0.389112 52.0568 0.355396 51.8049 0.295898 51.1801L0.319698 13.0657C0.377212 11.6894 1.13879 10.3586 2.30098 9.62081L16.3445 1.52313C18.4269 0.354987 19.5713 -0.236027 22.0226 0.932117C24.0039 1.88607 25.7868 3.86735 26.2231 6.30478V12.8496L23.7857 11.4395V6.56459C23.8293 4.3354 21.3205 1.52115 17.8657 3.27039L4.5857 10.9397C3.41756 11.6775 2.64805 13.0082 2.59054 14.3846M2.59054 14.3846L2.58062 52.4931C2.63814 53.1178 2.67185 53.3697 3.16767 53.7822M2.59054 14.3846C2.61434 14.0118 2.64805 13.7698 2.73928 13.4108L0.472409 12.0979M7.47929 33.8801L20.8941 26.1335M7.47929 29.7232L24.5096 19.8882M7.47929 25.8082L24.5096 15.9732M7.47731 41.7914L11.896 39.233M7.47731 15.8661L15.4084 11.2828M3.16568 53.7782L28.7558 39.0267M23.9642 29.3206C22.2645 30.3003 20.8782 32.6882 20.8782 34.6556C20.8782 36.623 22.2626 37.4183 23.9642 36.4346C25.6599 35.4509 27.0402 33.063 27.0402 31.0996C27.0402 29.1361 25.6579 28.3389 23.9642 29.3206Z" stroke="black" stroke-width="0.59498" stroke-linecap="round" stroke-linejoin="round"/>
<path fill-rule="evenodd" clip-rule="evenodd" d="M23.9642 30.7069C22.9329 31.3078 22.0801 32.7616 22.0801 33.9634C22.0801 35.1653 22.9329 35.6452 23.9642 35.0483C25.0014 34.4473 25.8443 32.9896 25.8443 31.7917C25.8443 30.5938 25.0014 30.106 23.9642 30.7069Z" stroke="black" stroke-width="0.59498" stroke-linecap="round" stroke-linejoin="round"/>
</g>
<defs>
<clipPath id="clip0_1_167">
<rect width="32" height="54.0797" fill="white"/>
</clipPath>
</defs>
</svg>
