<svg width="34" height="54" viewBox="0 0 34 54" fill="none" xmlns="http://www.w3.org/2000/svg">
<g clip-path="url(#clip0_1_598)">
<path d="M4.51942 36.5559C4.07488 37.0222 3.72393 37.3815 3.61697 37.4952C-0.256882 41.8637 0.396559 43.4547 0.384861 48.4649C0.384861 49.9874 0.580392 50.3835 2.23823 51.3478C4.5495 52.6747 7.21842 53.1326 10.011 52.9772C10.138 52.9688 10.265 52.9571 10.3904 52.9488C10.3987 52.9571 10.3987 52.9488 10.4104 52.9488C10.6795 52.9287 10.9536 52.907 11.2276 52.8719C13.4771 52.6179 15.7884 51.9979 18.0211 51.1456C21.0944 49.969 24.0257 48.3697 26.4724 46.7002C30.4532 43.9727 33.1589 41.0615 33.1589 39.4906" stroke="black" stroke-width="0.688536" stroke-linecap="round" stroke-linejoin="round"/>
<path d="M24.3766 28.3553L24.0824 28.8701V28.8784C24.0824 28.8784 22.453 31.4554 21.5573 32.3512" stroke="black" stroke-width="0.688536" stroke-linecap="round" stroke-linejoin="round"/>
<path d="M24.5321 31.7796C25.005 34.5271 25.3777 36.7197 24.1443 40.0103C23.6012 41.476 23.0179 42.701 22.5433 43.4062C22.5316 43.4179 22.5233 43.4263 22.5233 43.4346C22.2993 43.7572 22.1071 43.9611 21.9484 44.0195C21.6877 44.1248 21.3484 44.0764 20.9607 43.9209L20.9523 43.9126C20.5613 43.7655 20.1234 43.5115 19.6304 43.2307C14.5566 40.3479 12.1468 37.6138 8.22778 32.535" stroke="black" stroke-width="0.688536" stroke-linecap="round" stroke-linejoin="round"/>
<path d="M8.21682 32.5267C8.19676 32.4983 8.17671 32.4899 8.14663 32.4899C7.97115 32.4899 7.39124 33.13 7.4865 33.4893C7.4865 33.4893 7.47814 33.4977 7.46979 33.506" stroke="black" stroke-width="0.688536" stroke-linecap="round" stroke-linejoin="round"/>
<path d="M16.428 14.8955C15.3217 16.6302 13.2645 19.864 12.8483 23.8732C12.8082 24.2325 12.7781 24.6002 12.7664 24.9795C12.7497 25.3355 12.7497 25.7149 12.7581 26.0859C12.865 27.6735 13.1458 29.0823 13.5619 30.2589C13.9831 31.4354 14.5329 32.3729 15.1863 33.0548C15.1663 33.0631 15.1529 33.0631 15.1379 33.0715C15.9618 33.3255 16.7874 33.4926 17.628 33.5662C20.1515 33.8269 20.4824 33.6965 21.8728 31.9652" stroke="black" stroke-width="0.688536" stroke-linecap="round" stroke-linejoin="round"/>
<path d="M16.4476 14.8654C17.5422 16.8825 20.2897 15.8246 22.8617 14.837C25.046 13.9913 27.0748 13.2159 27.2586 14.8453C27.267 15.0492 27.2753 15.2531 27.2753 15.4252C27.287 15.584 27.287 15.8046 27.287 16.0787C27.287 16.4547 27.2753 16.8056 27.267 17.1248C27.2586 17.4674 27.2302 17.815 27.2102 18.166" stroke="black" stroke-width="0.688536" stroke-linecap="round" stroke-linejoin="round"/>
<path d="M27.1992 18.1643C27.1173 18.9983 26.9953 19.884 26.8399 20.7647C26.6811 21.6588 26.4889 22.5613 26.2767 23.4219C25.8773 24.8876 25.3625 26.2881 24.7793 27.5565" stroke="black" stroke-width="0.688536" stroke-linecap="round" stroke-linejoin="round"/>
<path d="M24.7425 27.6451C24.7057 27.727 24.6656 27.7921 24.6356 27.8623C24.6155 27.8991 24.5954 27.9392 24.5787 27.976" stroke="black" stroke-width="0.688536" stroke-linecap="round" stroke-linejoin="round"/>
<path d="M13.2831 33.6781C7.24508 30.192 5.2647 30.4126 3.06038 24.3912C1.48778 18.5136 1.26718 12.7981 4.27368 7.67752C5.42848 5.88933 10.1981 1.93359 12.0799 3.02322C12.2921 2.66725 12.5244 2.37479 12.7868 2.05225" stroke="black" stroke-width="0.688536" stroke-linecap="round" stroke-linejoin="round"/>
<path d="M12.7864 2.05225L13.2727 1.55256L13.7774 1.13309" stroke="black" stroke-width="0.688536" stroke-linecap="round" stroke-linejoin="round"/>
<path d="M13.7766 1.13308C17.9981 -1.65616 26.1987 3.56134 28.3629 7.23632C30.2931 10.5069 30.624 16.7806 26.6449 26.0524C26.1302 26.517 25.4901 27.0284 24.7798 27.5582" stroke="black" stroke-width="0.688536" stroke-linecap="round" stroke-linejoin="round"/>
<path d="M26.2657 23.4186C26.4897 22.5579 26.6735 21.6588 26.8406 20.7614C26.9961 19.879 27.1181 18.9983 27.1999 18.161" stroke="black" stroke-width="0.688536" stroke-linecap="round" stroke-linejoin="round"/>
<path d="M16.4273 14.8955C15.3209 16.6302 13.2637 19.8673 12.8342 23.8732C12.8058 24.2292 12.7774 24.5952 12.7573 24.9762C12.749 25.3388 12.7373 25.7149 12.7573 26.0859" stroke="black" stroke-width="0.688536" stroke-linecap="round" stroke-linejoin="round"/>
<path d="M12.7568 26.0842C12.9807 29.2762 13.8748 31.7028 15.1867 33.0581C14.4347 33.3506 13.7946 33.5645 13.2832 33.6781" stroke="black" stroke-width="0.688536" stroke-linecap="round" stroke-linejoin="round"/>
<path d="M7.4777 33.491C7.40918 33.5327 3.98321 37.0958 3.61555 37.5002C-0.258308 41.8637 0.383435 43.4547 0.383435 48.46C0.383435 49.9824 0.578966 50.3868 2.2368 51.3461C6.71062 53.9298 12.5849 53.2078 18.008 51.1422C15.2237 48.4884 14.8076 45.5337 14.1943 42.6141" stroke="black" stroke-width="0.688536" stroke-linecap="round" stroke-linejoin="round"/>
<path d="M14.1931 42.6141L9.88642 45.4401L7.47821 33.491" stroke="black" stroke-width="0.688536" stroke-linecap="round" stroke-linejoin="round"/>
<path d="M27.0751 36.7197L31.0994 37.0005L25.5393 29.7341L25.4123 29.5753L25.4056 29.5586L24.4246 28.2768" stroke="black" stroke-width="0.688536" stroke-linecap="round" stroke-linejoin="round"/>
<path d="M14.2158 42.5973C16.5137 43.2458 19.1058 43.7739 21.9485 44.0179C23.4827 42.5071 25.1321 40.3713 27.0072 36.7147" stroke="black" stroke-width="0.688536" stroke-linecap="round" stroke-linejoin="round"/>
<path d="M9.06295 31.3919C8.78887 31.7914 8.42121 32.2944 8.22568 32.535" stroke="black" stroke-width="0.688536" stroke-linecap="round" stroke-linejoin="round"/>
<path d="M24.5794 27.976H24.566" stroke="black" stroke-width="0.688536" stroke-linecap="round" stroke-linejoin="round"/>
<path d="M33.1554 39.4872L33.1687 34.4218" stroke="black" stroke-width="0.688536" stroke-linecap="round" stroke-linejoin="round"/>
<path d="M24.5666 27.976C24.5182 28.0746 24.4731 28.1715 24.4246 28.2785" stroke="black" stroke-width="0.688536" stroke-linecap="round" stroke-linejoin="round"/>
<path d="M8.22495 32.5344L8.21722 32.5267" stroke="black" stroke-width="0.688536" stroke-linecap="round" stroke-linejoin="round"/>
<path d="M11.5448 44.3538L15.4471 51.184" stroke="black" stroke-width="0.688536" stroke-linecap="round" stroke-linejoin="round"/>
<path d="M26.4706 46.6968C26.8583 44.6479 27.9078 40.5167 27.0755 36.7197" stroke="black" stroke-width="0.688536" stroke-linecap="round" stroke-linejoin="round"/>
<path d="M28.7313 37.0907L27.9275 44.815" stroke="black" stroke-width="0.688536" stroke-linecap="round" stroke-linejoin="round"/>
<path d="M21.9458 49.2922C22.0527 47.4305 22.0644 45.6791 21.9458 44.0179" stroke="black" stroke-width="0.688536" stroke-linecap="round" stroke-linejoin="round"/>
<path d="M33.1694 34.4218C33.1694 29.7759 28.5033 28.0696 24.6378 27.8607" stroke="black" stroke-width="0.688536" stroke-linecap="round" stroke-linejoin="round"/>
</g>
<defs>
<clipPath id="clip0_1_598">
<rect width="33.5127" height="53.3499" fill="white"/>
</clipPath>
</defs>
</svg>
