<svg width="56" height="50" viewBox="0 0 56 50" fill="none" xmlns="http://www.w3.org/2000/svg">
<path d="M33.605 41.2946C32.8478 39.9798 31.7596 38.8353 30.6248 38.1576C29.4881 37.4953 28.4018 37.4237 27.6446 37.8632" stroke="black" stroke-width="0.59" stroke-linecap="round" stroke-linejoin="round"/>
<path d="M27.6447 37.8652C26.8875 38.3047 26.415 39.2517 26.415 40.5859C26.415 41.9201 26.8875 43.3995 27.6447 44.7144C28.4483 46.0292 29.4901 47.1737 30.6249 47.8514C31.808 48.5137 32.8479 48.5853 33.6051 48.1438C34.3622 47.7042 34.8347 46.7631 34.8347 45.425C34.8347 44.087 34.3622 42.6095 33.6051 41.2946" stroke="black" stroke-width="0.59" stroke-linecap="round" stroke-linejoin="round"/>
<path d="M3.42546 27.42C3.48936 27.389 3.47387 27.3426 3.47387 27.2825C3.47387 26.9533 3.51454 26.5002 3.59974 26.0877C3.81662 25.0498 4.43241 24.3178 5.26315 24.0177C6.2914 23.6459 7.39711 24.008 8.29949 24.5289C9.67049 25.2899 10.8537 26.6067 11.7522 28.1249C12.5093 29.4881 13.0302 31.0063 13.1251 32.4102C13.1716 32.6136 13.1251 32.9311 13.22 33.119C13.2665 33.2758 13.4098 33.4307 13.5511 33.5024C13.646 33.5682 13.7874 33.6592 13.9287 33.7386C17.7803 35.8532 21.6319 38.2138 25.4235 40.4174C25.5183 40.4736 25.6132 40.4833 25.7062 40.4407C25.7546 40.3942 25.8011 40.3129 25.8011 40.2044C25.8011 39.7416 25.8301 39.333 25.9211 38.9477C26.198 37.749 27.0326 36.7982 28.3223 36.7459C28.6554 36.7324 29.0175 36.7789 29.397 36.8834C29.7746 36.9783 30.2007 37.1526 30.6267 37.4043C31.9512 38.1808 33.1808 39.4957 34.0329 41.0003" stroke="black" stroke-width="0.59" stroke-linecap="round" stroke-linejoin="round"/>
<path fill-rule="evenodd" clip-rule="evenodd" d="M4.13428 27.6989C4.13428 29.0389 4.60677 30.5241 5.31744 31.839C6.12107 33.1441 7.16287 34.3041 8.29763 34.9644C11.4908 36.7537 13.0748 34.1414 12.3003 31.0373C11.6361 28.3824 9.45369 25.1253 6.97504 24.7458C6.57807 24.6858 6.20627 24.6974 5.84222 24.7961C4.55061 25.1447 4.13234 26.446 4.13234 27.6989H4.13428Z" stroke="black" stroke-width="0.59" stroke-linecap="round" stroke-linejoin="round"/>
<path d="M22.064 18.5046L7.39934 10.1024" stroke="black" stroke-width="0.59" stroke-linecap="round" stroke-linejoin="round"/>
<path d="M45.005 20.1874L46.6123 19.2753V17.0368L44.4841 18.2664V19.0759" stroke="black" stroke-width="0.59" stroke-linecap="round" stroke-linejoin="round"/>
<path d="M4.18261 27.0463L3.42546 27.4781" stroke="black" stroke-width="0.59" stroke-linecap="round" stroke-linejoin="round"/>
<path d="M3.42552 27.4781C3.28416 27.633 2.95303 27.3968 2.81167 27.298C2.29076 26.9475 1.81827 26.4092 1.48714 25.8128C1.06112 25.1369 0.824875 24.3701 0.824875 23.6846V22.7861" stroke="black" stroke-width="0.59" stroke-linecap="round" stroke-linejoin="round"/>
<path d="M13.9269 33.7406C13.0284 34.3041 11.7039 35.0128 11.2779 35.2587" stroke="black" stroke-width="0.59" stroke-linecap="round" stroke-linejoin="round"/>
<path d="M25.7043 40.4426C25.6094 40.4852 25.5165 40.4755 25.4216 40.4194C24.1436 39.6777 21.7307 38.2583 19.3199 36.8757C19.0372 36.7053 18.7525 36.5407 18.4678 36.3606C18.2316 36.2231 17.9953 36.1011 17.7591 35.9675C16.2448 35.0787 14.8738 34.2692 13.9269 33.7386" stroke="black" stroke-width="0.59" stroke-linecap="round" stroke-linejoin="round"/>
<path d="M45.3359 20.8303L45.0047 20.1874L44.4838 19.0759L40.0842 10.0792L23.3398 19.7614" stroke="black" stroke-width="0.59" stroke-linecap="round" stroke-linejoin="round"/>
<path d="M23.3398 19.7614C23.5276 20.017 23.6709 20.2862 23.8607 20.5708C24.0505 20.8729 24.2383 21.2098 24.4281 21.5603C25.7991 24.1571 27.0771 27.3639 28.3068 29.9606C28.4017 30.164 28.4966 30.344 28.5914 30.5086C28.7812 30.9153 28.9226 31.3084 29.3002 31.535" stroke="black" stroke-width="0.59" stroke-linecap="round" stroke-linejoin="round"/>
<path d="M29.3004 31.5369L38.0047 36.56L38.0512 36.5833" stroke="black" stroke-width="0.59" stroke-linecap="round" stroke-linejoin="round"/>
<path d="M55.6012 38.0782V28.0261L38.8548 37.7083V47.7527" stroke="black" stroke-width="0.59" stroke-linecap="round" stroke-linejoin="round"/>
<path d="M7.25598 10.0559V10.0462L7.35087 10.0133L23.8126 0.495712" stroke="black" stroke-width="0.59" stroke-linecap="round" stroke-linejoin="round"/>
<path d="M0.823098 20.9213L0.399017 20.6696V22.5382L0.823098 22.7861" stroke="black" stroke-width="0.59" stroke-linecap="round" stroke-linejoin="round"/>
<path d="M0.823098 20.414L0.399017 20.6696L0.823098 20.9213" stroke="black" stroke-width="0.59" stroke-linecap="round" stroke-linejoin="round"/>
<path d="M23.1501 19.5677C22.7725 19.0952 22.4414 18.7351 22.0618 18.522V18.5027" stroke="black" stroke-width="0.59" stroke-linecap="round" stroke-linejoin="round"/>
<path d="M7.3991 10.1024C7.35069 10.0695 7.30421 10.054 7.2558 10.054C7.20739 10.054 7.16092 10.1256 7.06797 10.2012C6.02616 11.1558 1.81633 16.1751 1.20248 16.8567C0.966235 17.1878 0.824875 17.6468 0.824875 18.1522V23.6807C0.824875 24.3662 1.06112 25.1331 1.48714 25.8089C1.81827 26.4053 2.29076 26.9456 2.81167 27.2941C2.95303 27.3929 3.28416 27.6291 3.42552 27.4742" stroke="black" stroke-width="0.59" stroke-linecap="round" stroke-linejoin="round"/>
<path d="M28.117 29.5675C28.2119 29.6992 28.2584 29.8367 28.3068 29.9606C28.4017 30.164 28.4965 30.344 28.5914 30.5086C28.7812 30.9153 28.9226 31.3084 29.3002 31.535" stroke="black" stroke-width="0.59" stroke-linecap="round" stroke-linejoin="round"/>
<path d="M25.9892 28.9246C25.4683 27.97 24.8544 26.6784 24.1921 25.3964C23.1987 23.4716 22.2518 21.5933 21.8742 21.0298C21.638 20.718 21.3533 20.4585 21.1171 20.3017" stroke="black" stroke-width="0.59" stroke-linecap="round" stroke-linejoin="round"/>
<path fill-rule="evenodd" clip-rule="evenodd" d="M55.6012 38.9573V36.256L38.8548 45.9402V48.6357L55.6012 38.9573Z" stroke="black" stroke-width="0.59" stroke-linecap="round" stroke-linejoin="round"/>
<path fill-rule="evenodd" clip-rule="evenodd" d="M38.8547 45.9402L35.2607 44.0056V46.6915L38.8547 48.6357V45.9402Z" stroke="black" stroke-width="0.59" stroke-linecap="round" stroke-linejoin="round"/>
<path fill-rule="evenodd" clip-rule="evenodd" d="M25.4215 20.6522L39.7066 12.3971L44.1527 21.3551L29.8676 29.6101L25.4215 20.6522Z" stroke="black" stroke-width="0.59" stroke-linecap="round" stroke-linejoin="round"/>
<path fill-rule="evenodd" clip-rule="evenodd" d="M28.8277 27.5207L36.5851 23.1676L37.9096 20.7509L41.6934 18.6363L42.9714 18.9636L44.1527 21.3551L29.8675 29.6101L28.8277 27.5207Z" stroke="black" stroke-width="0.59" stroke-linecap="round" stroke-linejoin="round"/>
<path fill-rule="evenodd" clip-rule="evenodd" d="M26.6049 30.7797V28.5412L24.4748 29.7805V32.0094L26.6049 30.7797Z" stroke="black" stroke-width="0.59" stroke-linecap="round" stroke-linejoin="round"/>
<path fill-rule="evenodd" clip-rule="evenodd" d="M53.2367 35.495C52.4796 35.9307 51.8638 35.5841 51.8638 34.7146C51.8638 33.8451 52.4796 32.7936 53.2367 32.3676C53.9939 31.9281 54.5612 32.2786 54.5612 33.1441C54.5612 34.0097 53.9939 35.0651 53.2367 35.495Z" stroke="black" stroke-width="0.59" stroke-linecap="round" stroke-linejoin="round"/>
<path fill-rule="evenodd" clip-rule="evenodd" d="M41.1725 42.4294C40.4154 42.8593 39.848 42.5107 39.848 41.6451C39.848 40.7796 40.4154 39.7203 41.1725 39.2943C41.9297 38.8547 42.5455 39.2188 42.5455 40.0786C42.5455 40.9383 41.9316 41.9937 41.1725 42.4294Z" stroke="black" stroke-width="0.59" stroke-linecap="round" stroke-linejoin="round"/>
<path d="M32.2804 42.0711C32.658 42.7915 32.9427 43.6145 32.9427 44.3465C32.9427 45.0784 32.658 45.5897 32.2804 45.8414C31.8544 46.0776 31.2386 46.0447 30.6248 45.671C30.009 45.3127 29.3951 44.6679 29.0175 43.9495" stroke="black" stroke-width="0.59" stroke-linecap="round" stroke-linejoin="round"/>
<path d="M28.9691 43.9146C28.5915 43.1962 28.3069 42.3945 28.3069 41.678C28.3069 40.9616 28.5915 40.429 29.0175 40.1831" stroke="black" stroke-width="0.59" stroke-linecap="round" stroke-linejoin="round"/>
<path d="M29.0175 40.1831C29.3951 39.9469 30.0109 39.9798 30.6248 40.34C31.2386 40.7137 31.8544 41.343 32.2804 42.0712" stroke="black" stroke-width="0.59" stroke-linecap="round" stroke-linejoin="round"/>
<path d="M9.95347 29.1841C10.3795 29.9025 10.6157 30.7275 10.6157 31.4556C10.6157 32.1837 10.3795 32.7046 9.95347 32.9505C9.52746 33.1867 8.96008 33.1538 8.29781 32.7801C7.68396 32.4257 7.11465 31.7925 6.69057 31.0625" stroke="black" stroke-width="0.59" stroke-linecap="round" stroke-linejoin="round"/>
<path d="M6.64184 31.0295C6.26423 30.3111 6.02605 29.5114 6.02605 28.793C6.02605 28.0745 6.26229 27.5439 6.68831 27.298" stroke="black" stroke-width="0.59" stroke-linecap="round" stroke-linejoin="round"/>
<path d="M6.68829 27.298C7.11431 27.0618 7.68169 27.0947 8.29554 27.4626C8.9578 27.8228 9.52518 28.4657 9.9512 29.1841" stroke="black" stroke-width="0.59" stroke-linecap="round" stroke-linejoin="round"/>
<path d="M55.6013 38.0782V28.0261" stroke="black" stroke-width="0.59" stroke-linecap="round" stroke-linejoin="round"/>
<path d="M55.601 28.0261C55.601 27.724 55.4112 27.2748 54.3229 26.6454" stroke="black" stroke-width="0.59" stroke-linecap="round" stroke-linejoin="round"/>
<path d="M54.3229 26.6454L46.093 21.8624" stroke="black" stroke-width="0.59" stroke-linecap="round" stroke-linejoin="round"/>
<path d="M46.093 21.8624C45.667 21.6262 45.5256 21.2428 45.3358 20.8303" stroke="black" stroke-width="0.59" stroke-linecap="round" stroke-linejoin="round"/>
<path d="M38.0511 36.5833C38.7599 36.9996 38.8083 37.2939 38.8547 37.5863" stroke="black" stroke-width="0.59" stroke-linecap="round" stroke-linejoin="round"/>
<path d="M38.8548 37.5863V47.7527" stroke="black" stroke-width="0.59" stroke-linecap="round" stroke-linejoin="round"/>
<path d="M23.8126 0.495713C23.954 0.395018 24.0004 0.362099 24.1902 0.443429" stroke="black" stroke-width="0.59" stroke-linecap="round" stroke-linejoin="round"/>
<path d="M24.1919 0.44342L38.8082 8.83016" stroke="black" stroke-width="0.59" stroke-linecap="round" stroke-linejoin="round"/>
<path d="M38.8083 8.83017C39.3292 9.15743 39.7533 9.55827 40.0844 10.0792" stroke="black" stroke-width="0.59" stroke-linecap="round" stroke-linejoin="round"/>
<path d="M34.0776 41.0255C34.5985 41.9801 35.0245 43.0026 35.2608 44.0153" stroke="black" stroke-width="0.59" stroke-linecap="round" stroke-linejoin="round"/>
<path d="M21.117 20.3016L17.5694 18.2664" stroke="black" stroke-width="0.59" stroke-linecap="round" stroke-linejoin="round"/>
<path d="M17.5693 18.2665C17.3795 18.1541 17.2381 18.2432 17.2381 18.4795" stroke="black" stroke-width="0.59" stroke-linecap="round" stroke-linejoin="round"/>
<path d="M17.2381 18.4814V24.7865" stroke="black" stroke-width="0.59" stroke-linecap="round" stroke-linejoin="round"/>
<path d="M17.2381 24.7865C17.2381 25.013 17.3795 25.2919 17.5693 25.4061" stroke="black" stroke-width="0.59" stroke-linecap="round" stroke-linejoin="round"/>
<path d="M17.5694 25.4061L24.8059 29.5869" stroke="black" stroke-width="0.59" stroke-linecap="round" stroke-linejoin="round"/>
<path d="M9.85846 13.7913L15.6291 17.1414" stroke="black" stroke-width="0.59" stroke-linecap="round" stroke-linejoin="round"/>
<path d="M15.6292 17.1414C15.8655 17.2653 16.0552 17.5674 16.0552 17.8133" stroke="black" stroke-width="0.59" stroke-linecap="round" stroke-linejoin="round"/>
<path d="M16.0551 17.8133V24.4263" stroke="black" stroke-width="0.59" stroke-linecap="round" stroke-linejoin="round"/>
<path d="M16.0552 24.4263C16.0552 24.678 15.8674 24.7768 15.6292 24.6528" stroke="black" stroke-width="0.59" stroke-linecap="round" stroke-linejoin="round"/>
<path d="M15.6291 24.6528L9.85846 21.3047" stroke="black" stroke-width="0.59" stroke-linecap="round" stroke-linejoin="round"/>
<path d="M9.85861 21.3047C9.66884 21.1769 9.481 20.8748 9.481 20.6289" stroke="black" stroke-width="0.59" stroke-linecap="round" stroke-linejoin="round"/>
<path d="M9.481 20.627V14.014" stroke="black" stroke-width="0.59" stroke-linecap="round" stroke-linejoin="round"/>
<path d="M9.481 14.014C9.481 13.7681 9.66884 13.6635 9.85861 13.7913" stroke="black" stroke-width="0.59" stroke-linecap="round" stroke-linejoin="round"/>
<path d="M7.87172 12.9219C8.10797 13.0497 8.24933 13.3518 8.24933 13.5977" stroke="black" stroke-width="0.59" stroke-linecap="round" stroke-linejoin="round"/>
<path d="M8.25107 13.5977V19.9279" stroke="black" stroke-width="0.59" stroke-linecap="round" stroke-linejoin="round"/>
<path d="M8.25122 19.9279C8.25122 20.1777 8.06145 20.2784 7.87361 20.1545" stroke="black" stroke-width="0.59" stroke-linecap="round" stroke-linejoin="round"/>
<path d="M7.87152 20.1545L4.08771 17.9605" stroke="black" stroke-width="0.59" stroke-linecap="round" stroke-linejoin="round"/>
<path d="M4.0879 17.9605C3.33076 17.5442 3.42564 16.9535 3.94654 16.3997" stroke="black" stroke-width="0.59" stroke-linecap="round" stroke-linejoin="round"/>
<path d="M3.94664 16.3978L6.83194 13.0923" stroke="black" stroke-width="0.59" stroke-linecap="round" stroke-linejoin="round"/>
<path d="M6.83163 13.0923C7.25765 12.6198 7.58878 12.767 7.87344 12.9219" stroke="black" stroke-width="0.59" stroke-linecap="round" stroke-linejoin="round"/>
<path d="M16.7639 27.4781L19.1302 28.8588" stroke="black" stroke-width="0.59" stroke-linecap="round" stroke-linejoin="round"/>
<path d="M8.10773 22.5053L10.5205 23.8783" stroke="black" stroke-width="0.59" stroke-linecap="round" stroke-linejoin="round"/>
<path d="M46.0933 21.8527L29.3004 31.5369" stroke="black" stroke-width="0.59" stroke-linecap="round" stroke-linejoin="round"/>
<path d="M26.6049 30.7797L27.4085 30.3111" stroke="black" stroke-width="0.59" stroke-linecap="round" stroke-linejoin="round"/>
<path d="M43.5389 38.1014L50.7754 33.9052" stroke="black" stroke-width="0.59" stroke-linecap="round" stroke-linejoin="round"/>
<path d="M43.5389 40.9151L50.7754 36.7169" stroke="black" stroke-width="0.59" stroke-linecap="round" stroke-linejoin="round"/>
<path d="M43.5855 39.4976L50.729 35.3478" stroke="black" stroke-width="0.59" stroke-linecap="round" stroke-linejoin="round"/>
</svg>
