<?xml version="1.0" encoding="utf-8"?>
<!-- Generator: Adobe Illustrator 23.1.0, SVG Export Plug-In . SVG Version: 6.00 Build 0)  -->
<svg version="1.1" id="Layer_1" xmlns="http://www.w3.org/2000/svg" xmlns:xlink="http://www.w3.org/1999/xlink" x="0px" y="0px"
	 viewBox="0 0 141 32" style="enable-background:new 0 0 141 32;" xml:space="preserve">
<style type="text/css">
	.st0{fill:#FCD500;}
	.st1{fill:#0C9C0C;}
</style>
<g>
	<path d="M74.2,11.2c1.3-1.3,2.9-2,4.7-2c1.8,0,3.5,0.7,4.7,2c0.2,0.2,0.4,0.5,0.6,0.7c0.5,0.6,1.2,1,2,1c0.5,0,1-0.2,1.5-0.5
		c1.1-0.8,1.3-2.4,0.5-3.5c-0.3-0.4-0.7-0.9-1.1-1.2c-2.2-2.2-5.1-3.4-8.2-3.4c-2.4,0-4.8,0.8-6.7,2.2c-0.1,0-0.2,0.1-0.2,0.2
		c-0.4,0.3-0.8,0.7-1.2,1.1c-2.2,2.2-3.4,5.2-3.4,8.3c0,3,1.1,5.8,3.1,8c0.1,0.1,0.2,0.2,0.3,0.3c2.2,2.2,5.1,3.4,8.2,3.4
		c3.1,0,6-1.2,8.2-3.4c0.4-0.4,0.7-0.8,1.1-1.2c0.8-1.1,0.6-2.7-0.5-3.5c-1.1-0.8-2.6-0.6-3.4,0.5c-0.2,0.2-0.4,0.5-0.6,0.7
		c-1.3,1.3-2.9,2-4.7,2c-1.7,0-3.3-0.6-4.5-1.8c-0.1-0.1-0.1-0.1-0.2-0.2c-1.3-1.3-2-3-2-4.8C72.2,14.2,72.9,12.5,74.2,11.2
		C74.1,11.2,74.1,11.2,74.2,11.2"/>
	<path d="M108,7.6c-1-2.1-3.1-3.3-5.3-3.3c-2.3,0-4.3,1.3-5.3,3.3l-8.2,16.6c-0.6,1.2-0.1,2.7,1.1,3.3c1.2,0.6,2.7,0.1,3.3-1.1
		l8.2-16.6c0.3-0.5,0.7-0.6,0.9-0.6c0.2,0,0.7,0.1,0.9,0.6l4,8.1h-5c-1.4,0-2.5,1.1-2.5,2.5c0,1.4,1.1,2.5,2.5,2.5h7.5l1.7,3.5
		c0.4,0.9,1.3,1.4,2.2,1.4c0.4,0,0.7-0.1,1.1-0.3c1.2-0.6,1.7-2.1,1.1-3.3L108,7.6z"/>
	<path d="M140.6,23.9l-2.4-3.7c1.7-1.7,2.8-4.1,2.8-6.7c0-5.1-4.1-9.3-9.2-9.3h-11.6c-1.4,0-2.5,1.1-2.5,2.5v8.8v0v9.8
		c0,1.4,1.1,2.5,2.5,2.5c1.4,0,2.5-1.1,2.5-2.5v-2.4h9.1c0.7,0,1.4-0.1,2.1-0.2l2.6,4c0.5,0.7,1.3,1.1,2,1.1c0.5,0,0.9-0.1,1.4-0.4
		C141,26.6,141.3,25,140.6,23.9 M122.7,17.9v-2.4c0,0,0,0,0,0V9.2h9.1c2.4,0,4.3,1.9,4.3,4.3c0,2.4-1.9,4.3-4.3,4.3H122.7z"/>
	<path class="st0" d="M27.6,14.5L2.5,0.7c-1.3-0.7-2.9,0.5-2.4,2l4,12.8c0.1,0.3,0.1,0.7,0,1l-4,12.8c-0.5,1.5,1.1,2.7,2.4,2
		l25.1-13.8C28.8,16.9,28.8,15.1,27.6,14.5"/>
	<path class="st1" d="M55.3,16.8c-0.4-0.4-0.4-1,0-1.4L68.7,1.8l0.1-0.1C69,1.5,69.1,1.3,69.1,1c0-0.6-0.5-1-1-1H50.6
		c-0.3,0-0.5,0.1-0.7,0.3l-4.7,4.8c-0.4,0.4-1,0.4-1.4,0l-4.7-4.8C38.9,0.1,38.6,0,38.4,0H20.9c-0.6,0-1,0.5-1,1
		c0,0.3,0.1,0.5,0.2,0.7l0.1,0.1l13.4,13.6c0.4,0.4,0.4,1,0,1.4L20.3,30.3C19.7,30.9,20.1,32,21,32h17.5c0.3,0,0.5-0.1,0.7-0.3
		l4.6-4.7c0.4-0.4,1-0.4,1.4,0l4.6,4.7c0.2,0.2,0.4,0.3,0.7,0.3H68c0.9,0,1.3-1.1,0.7-1.7L55.3,16.8z"/>
</g>
</svg>
